<svg width="125" height="130" viewBox="0 0 125 130" fill="none" xmlns="http://www.w3.org/2000/svg">
<path d="M23.2949 35.0176C23.2949 36.2913 22.2615 37.3236 20.9878 37.3236C19.7141 37.3236 18.6818 36.2913 18.6818 35.0176C18.6818 33.7438 19.7141 32.7104 20.9878 32.7104C22.2615 32.7104 23.2949 33.7438 23.2949 35.0176Z" fill="black"/>
<path d="M50.3125 58.8183L51.5931 59.2577L53.0099 52.6899H53.011C53.36 51.0695 53.5363 49.4181 53.5363 47.7599V46.8718C52.3141 45.3658 51.4924 43.5736 51.1491 41.6637C47.8669 42.3893 44.4325 41.6443 41.7465 39.6244C40.6868 40.4197 39.4978 41.0274 38.2332 41.42C39.5939 44.1551 39.8114 47.3207 38.8352 50.2169C41.6699 54.2122 45.6833 57.2195 50.3125 58.8183Z" fill="black"/>
<path d="M32.3389 19.1445C34.0177 18.7726 35.7596 18.7829 37.4339 19.1754C36.9361 17.0491 37.0551 14.8254 37.7761 12.7656C38.497 10.7045 39.7891 8.89045 41.5023 7.53782C40.6715 5.55914 38.9411 3.79456 36.6238 2.60071C34.0649 1.28235 31.126 0.774224 28.6817 0.513306C27.305 4.11125 26.9628 8.0218 27.6941 11.804C30.1386 13.5527 31.8048 16.186 32.3391 19.1444L32.3389 19.1445Z" fill="black"/>
<path d="M15.0654 57.5967C13.2584 61.0824 12.5809 65.0434 13.1257 68.9319L13.8626 68.6435C18.8317 66.6912 22.7525 62.7429 24.6717 57.7612L24.7221 57.6308C22.8819 57.1009 21.2018 56.1224 19.833 54.7834C18.4952 56.0927 16.8587 57.0588 15.0654 57.5967Z" fill="black"/>
<path d="M44.0898 25.2177C42.3561 26.7512 41.5046 29.0503 41.8193 31.3437C42.1352 33.6371 43.5772 35.6205 45.661 36.6286C47.7449 37.6367 50.1953 37.5349 52.1887 36.3596C52.952 35.9064 53.9064 35.9305 54.6446 36.4214C55.3827 36.9124 55.7741 37.7833 55.6517 38.6622C55.6059 38.9826 55.583 39.3076 55.5818 39.6315C55.5818 42.1034 56.9002 44.3875 59.0415 45.6236C61.1816 46.8595 63.8195 46.8595 65.9594 45.6236C68.1006 44.3876 69.4191 42.1033 69.4191 39.6315C69.4191 39.3065 69.395 38.9826 69.3504 38.661C69.2268 37.7821 69.6182 36.9123 70.3575 36.4214C71.0956 35.9305 72.05 35.9064 72.8122 36.3585C74.8058 37.5407 77.2595 37.6448 79.3469 36.6377C81.4343 35.6295 82.8774 33.6439 83.1921 31.347C83.5067 29.0501 82.6508 26.7488 80.9113 25.2175C80.4146 24.7792 80.1308 24.1498 80.1308 23.4872C80.1308 22.8257 80.4146 22.1951 80.9113 21.758C82.6451 20.2245 83.4965 17.9254 83.1806 15.632C82.8648 13.3386 81.4228 11.3552 79.3401 10.3483C77.2561 9.34009 74.8058 9.44078 72.8125 10.6161C72.0503 11.0693 71.0959 11.0452 70.3577 10.5543C69.6185 10.0633 69.227 9.19247 69.3507 8.3147C69.3953 7.99311 69.4193 7.66812 69.4193 7.34424C69.4193 4.87232 68.101 2.58819 65.9597 1.35215C63.8196 0.116177 61.1816 0.116177 59.0418 1.35215C56.9006 2.58813 55.5821 4.87247 55.5821 7.34424C55.5821 7.66812 55.6061 7.99197 55.6519 8.31356C55.7744 9.19132 55.383 10.0634 54.6448 10.5543C53.9067 11.0453 52.9523 11.0693 52.1889 10.6161C50.1954 9.4408 47.7464 9.34007 45.6625 10.3483C43.5785 11.3554 42.1366 13.3386 41.8208 15.632C41.505 17.9254 42.3575 20.2246 44.0901 21.758C44.5868 22.1951 44.8718 22.8257 44.8718 23.4872C44.8718 24.1498 44.5868 24.7792 44.0901 25.2175L44.0898 25.2177ZM62.5012 16.5693C64.3357 16.5693 66.0959 17.2983 67.3935 18.5949C68.6901 19.8927 69.4191 21.6529 69.4191 23.4872C69.4191 25.3228 68.6901 27.0828 67.3935 28.3795C66.0957 29.6772 64.3355 30.4062 62.5012 30.4062C60.6655 30.4062 58.9056 29.6772 57.6089 28.3795C56.3111 27.0828 55.5821 25.3226 55.5821 23.4872C55.5844 21.6527 56.3134 19.8948 57.6112 18.5972C58.9078 17.3006 60.6669 16.5704 62.5012 16.5693Z" fill="black"/>
<path d="M64.8057 23.4863C64.8057 24.76 63.7734 25.7934 62.4997 25.7934C61.2259 25.7934 60.1926 24.76 60.1926 23.4863C60.1926 22.2125 61.2259 21.1803 62.4997 21.1803C63.7734 21.1803 64.8057 22.2125 64.8057 23.4863Z" fill="black"/>
<path d="M72.4492 45.4501C72.4847 45.3929 72.5145 45.338 72.5396 45.2876C72.5099 45.3425 72.4801 45.3963 72.4492 45.4501Z" fill="black"/>
<path d="M85.5596 23.4863C85.7427 23.7301 85.9155 23.9807 86.078 24.2382H86.0791C88.1803 23.4405 90.4678 23.2734 92.6618 23.7575C93.1322 21.162 94.4757 18.8058 96.4704 17.0799C98.464 15.3541 100.99 14.3619 103.625 14.2704C104.31 10.7457 104.511 7.14539 104.224 3.56678C99.1666 3.44776 94.1346 4.3072 89.4049 6.09934C87.4159 6.85693 85.8594 7.69693 84.6992 8.63994C86.5761 10.6129 87.6919 13.1877 87.8498 15.9059C88.0077 18.6238 87.1964 21.3097 85.5599 23.4864L85.5596 23.4863Z" fill="black"/>
<path d="M72.6309 53.3661L73.3473 55.4135L75.9027 54.8825V54.8813C79.2112 54.1867 82.0094 51.9928 83.4742 48.9452C83.7271 47.6486 84.2021 46.4046 84.8773 45.2681C83.0565 44.3286 81.5207 42.9198 80.4288 41.1859C78.33 41.9836 76.0434 42.1518 73.852 41.6666C73.6323 42.8888 73.2157 44.0675 72.6183 45.1546C72.5588 45.4224 72.4123 46.1961 72.1216 48.2938V48.2949C71.8882 50.0013 72.0621 51.7399 72.6309 53.3661Z" fill="black"/>
<path d="M66.0039 106.514H59.1924L56.3668 111.221H56.368C54.2623 114.72 52.8822 118.608 52.3098 122.651L51.6918 126.972C51.598 127.627 51.7936 128.291 52.2274 128.79C52.6611 129.29 53.2894 129.576 53.9509 129.576H71.7487C73.0087 129.575 74.0295 128.554 74.0307 127.295C74.0215 120.339 71.6549 113.593 67.3164 108.157L66.0039 106.514Z" fill="black"/>
<path d="M84.1563 55.6308C83.1171 56.584 81.9533 57.392 80.6966 58.0317L83.2097 58.5341L81.6064 66.553C81.0456 69.3579 80.3727 72.1765 79.6071 74.9324L75.1633 73.6976C75.8992 71.0506 76.5446 68.3431 77.0837 65.6489L78.418 58.976C77.8996 59.1442 77.3732 59.285 76.8399 59.3971L72.3068 60.3401H72.3057C71.1738 60.5759 70.042 59.9361 69.6598 58.8444L68.2762 54.8905C67.736 53.3363 67.4454 51.7068 67.4167 50.0612C64.4595 51.4573 61.0482 51.5306 58.0338 50.2626C57.932 51.4058 57.7603 52.5422 57.5189 53.6648L55.5539 62.7709C55.4154 63.4152 55.0069 63.9691 54.4335 64.2929C53.8591 64.6168 53.1747 64.6797 52.551 64.4657L48.8133 63.1817C43.9107 61.4892 39.5722 58.4725 36.2786 54.4671C35.2807 55.5222 34.094 56.3817 32.7779 56.9985L33.5927 61.4789C35.7145 73.241 41.2981 84.104 49.6293 92.6742H53.0717C47.0705 84.6506 43.1828 75.246 41.7672 65.3261L46.3334 64.6738C47.7788 74.8053 52.0155 84.3335 58.5683 92.1947L58.9666 92.6742H67.9789C70.2609 87.9776 72.2132 83.1275 73.821 78.1608L78.2097 79.5799L78.2108 79.5788C76.7643 84.043 75.0523 88.4159 73.0815 92.6742H75.3806L78.0849 89.9699H78.086C84.7007 83.3392 89.6902 75.2655 92.6624 66.3836L93.8984 62.655C91.7869 62.489 89.7614 61.7463 88.0425 60.5081C86.3248 59.2687 84.9804 57.5818 84.1563 55.6308Z" fill="black"/>
<path d="M104.878 54.5117C105.867 56.3039 107.598 57.5662 109.607 57.9599C111.616 58.3525 113.696 57.8363 115.288 56.5489C116.88 55.2614 117.819 53.3353 117.853 51.2881C117.889 49.2407 117.016 47.2838 115.469 45.9425C114.713 45.2856 114.468 44.2156 114.863 43.2944C115.258 42.3743 116.201 41.8135 117.199 41.9073C117.43 41.9291 117.643 41.9394 117.853 41.9394L117.852 41.9382C120.011 41.9394 122.045 40.9323 123.353 39.2168C124.663 37.5013 125.096 35.2732 124.526 33.1916C123.957 31.1111 122.448 29.415 120.447 28.6061C118.446 27.797 116.184 27.9675 114.326 29.0673C113.564 29.5205 112.61 29.4964 111.871 29.0055C111.133 28.5145 110.742 27.6436 110.864 26.7659C110.909 26.4443 110.932 26.1193 110.932 25.7954C110.932 23.3235 109.612 21.0394 107.472 19.8033C105.331 18.5673 102.694 18.5673 100.553 19.8033C98.4119 21.0393 97.0935 23.3236 97.0935 25.7954C97.0946 26.1193 97.1175 26.4431 97.1633 26.7647C97.2857 27.6425 96.8943 28.5134 96.1562 29.0055C95.418 29.4964 94.4636 29.5205 93.7014 29.0673C91.8887 27.9938 89.6869 27.8038 87.7172 28.5512C88.3295 32.2912 87.0592 36.0928 84.3229 38.7136C85.3929 40.4177 87.1542 41.5678 89.1443 41.8619C90.0392 41.9958 90.7728 42.6389 91.0223 43.5076C91.2718 44.3773 90.9891 45.3111 90.3013 45.8982C88.7381 47.2281 87.8454 49.1839 87.8649 51.237C87.8855 53.2889 88.8159 55.2275 90.4055 56.5266C91.9951 57.8255 94.079 58.3519 96.0955 57.9628C98.1108 57.5737 99.849 56.3091 100.841 54.5125C101.248 53.7789 102.02 53.3234 102.859 53.3234C103.697 53.3234 104.469 53.7789 104.875 54.5125L104.878 54.5117ZM97.0938 39.6321C97.0938 37.7976 97.8227 36.0374 99.1205 34.7398C100.418 33.4421 102.177 32.7131 104.013 32.7131C105.847 32.7131 107.608 33.4421 108.905 34.7398C110.203 36.0376 110.932 37.7978 110.932 39.6321C110.932 41.4664 110.203 43.2268 108.905 44.5244C107.607 45.8222 105.847 46.5512 104.013 46.5512C102.178 46.5489 100.419 45.8187 99.1228 44.5221C97.8262 43.2255 97.096 41.4664 97.0938 39.6321Z" fill="black"/>
<path d="M75.3818 106.514H71.865C75.5192 111.538 77.7862 117.433 78.4419 123.61C79.9651 122.987 80.9584 121.501 80.9504 119.855C80.963 114.875 78.9844 110.097 75.4526 106.585L75.3818 106.514Z" fill="black"/>
<path d="M119.248 59.1376C117.118 61.3635 114.186 62.6442 111.107 62.6922C108.027 62.7403 105.058 61.5535 102.859 59.3952C102.849 59.4055 102.837 59.4146 102.827 59.4238L104.132 61.9106L104.133 61.9117C106.647 66.6965 111.333 69.9569 116.694 70.6504L124.327 71.6335L123.801 68.223H123.802C123.278 64.7909 121.684 61.6121 119.248 59.1376Z" fill="black"/>
<path d="M106.319 39.6318C106.319 40.9055 105.287 41.9378 104.013 41.9378C102.74 41.9378 101.707 40.9055 101.707 39.6318C101.707 38.358 102.74 37.3258 104.013 37.3258C105.287 37.3258 106.319 38.358 106.319 39.6318Z" fill="black"/>
<path d="M76.3369 101.899C77.6107 101.899 78.6429 100.867 78.6429 99.5933C78.6429 98.3196 77.6107 97.2874 76.3369 97.2874H48.6616C47.3879 97.2874 46.3556 98.3196 46.3556 99.5933C46.3556 100.867 47.3879 101.899 48.6616 101.899H76.3369Z" fill="black"/>
<path d="M34.8262 46.5487C34.825 44.5449 33.9564 42.6405 32.4435 41.328C31.6882 40.67 31.4433 39.6 31.8381 38.6798C32.2318 37.7586 33.1759 37.1978 34.1727 37.2917C34.4039 37.3134 34.6168 37.3237 34.8273 37.3237C36.1972 37.3226 37.5362 36.9152 38.6749 36.153C36.6207 32.5961 36.6196 28.2129 38.6726 24.6551C37.5877 23.9284 36.3209 23.5244 35.0164 23.489C33.7119 23.4535 32.4243 23.7877 31.3015 24.4526C30.5393 24.9058 29.5849 24.8817 28.8468 24.3908C28.1075 23.8998 27.7161 23.0289 27.8397 22.1512C27.8843 21.8296 27.9072 21.5046 27.9072 21.1796C27.9072 18.7076 26.5888 16.4235 24.4475 15.1875C22.3075 13.9515 19.6695 13.9515 17.5285 15.1875C15.3884 16.4235 14.07 18.7078 14.07 21.1796C14.07 21.5046 14.0929 21.8284 14.1387 22.15C14.2623 23.0278 13.8709 23.8987 13.1327 24.3896C12.3946 24.8806 11.439 24.9058 10.6768 24.4526C8.89842 23.3986 6.74226 23.196 4.79812 23.8987C2.85377 24.6013 1.32585 26.1371 0.632394 28.0849C-0.0611213 30.0315 0.152893 32.1877 1.21605 33.9604C2.27806 35.7342 4.0782 36.9393 6.1221 37.2472C7.01703 37.38 7.7506 38.0231 8.00009 38.8929C8.24843 39.7615 7.9669 40.6965 7.27912 41.2824C5.71356 42.6122 4.82094 44.568 4.84039 46.6212C4.85985 48.6754 5.79025 50.614 7.37984 51.9128C8.96943 53.2128 11.0546 53.7381 13.0711 53.349C15.0875 52.9599 16.8257 51.6942 17.8169 49.8964C18.2243 49.1628 18.9956 48.7085 19.8344 48.7085C20.6733 48.7085 21.4446 49.1628 21.852 49.8964C22.8477 51.6999 24.5963 52.9658 26.6207 53.3478C28.6452 53.7312 30.7348 53.1922 32.3222 51.8773C33.9083 50.5623 34.8262 48.6089 34.8262 46.5487ZM20.9881 41.9357C19.1536 41.9357 17.3934 41.2067 16.0958 39.9089C14.7992 38.6123 14.0702 36.8521 14.0702 35.0178C14.0702 33.1822 14.7992 31.4222 16.0958 30.1255C17.3936 28.8277 19.1538 28.0988 20.9881 28.0988C22.8237 28.0988 24.5837 28.8277 25.8804 30.1255C27.1782 31.4221 27.9072 33.1823 27.9072 35.0178C27.9049 36.8511 27.1759 38.6102 25.8781 39.9077C24.5815 41.2043 22.8224 41.9334 20.9881 41.9357Z" fill="black"/>
<path d="M53.8135 106.514H49.617L49.546 106.585C46.0143 110.097 44.0356 114.875 44.0494 119.855C44.0402 121.762 45.3666 123.415 47.2295 123.821C47.3108 123.839 47.3943 123.855 47.4756 123.873L47.7434 122V121.999C48.4037 117.347 49.9921 112.874 52.4136 108.848L53.8135 106.514Z" fill="black"/>
</svg>
