<svg id="svg" fill="#000000" stroke="#000000" width="200" height="200" version="1.1" viewBox="144 144 512 512" xmlns="http://www.w3.org/2000/svg">
    <g id="IconSvg_bgCarrier" stroke-width="0"></g>
    <g id="IconSvg_tracerCarrier" stroke-linecap="round" stroke-linejoin="round" stroke="#CCCCCC" stroke-width="0">
      <path xmlns="http://www.w3.org/2000/svg" d="m552.65 284.12h-69.02c-2.5195-1.0078-5.0391-1.0078-7.0547 0h-14.609c20.152-6.5508 40.305-17.129 47.863-33.25 4.0312-8.5664 5.543-22.672-7.0547-40.305-12.594-17.129-25.695-24.688-39.801-21.664-35.266 6.5508-55.418 78.594-58.945 92.699 0 1.0078-0.50391 1.5117-0.50391 2.5195h-3.5273c0-1.0078 0-1.5117-0.50391-2.5195-3.5273-14.105-23.68-86.152-58.945-92.699-14.105-2.5195-27.711 4.5352-39.801 21.664-12.594 17.633-10.578 31.738-7.0547 40.305 7.0547 16.121 27.711 26.703 47.863 33.25h-89.68c-5.543 0-10.078 4.5352-10.078 10.078v300.77c0 5.543 4.5352 10.078 10.078 10.078h300.77c5.543 0 10.078-4.5352 10.078-10.078v-300.77c0-5.543-4.5352-10.078-10.078-10.078zm-86.152-75.57h1.5117c6.5508 0 13.602 7.5586 18.137 14.105 8.5664 12.09 6.0469 18.137 5.0391 20.152-6.5508 14.609-38.289 24.688-63.984 29.223 9.0703-28.215 24.688-60.457 39.297-63.48zm76.078 310.85-63.984 63.48c-0.50391 0.50391-1.0078 1.5117-1.5117 2.0156h-72.551l138.04-138.04zm-238.81 65.496 238.8-238.8v72.043l-166.76 166.76zm-41.816-159.71 120.91-120.91h72.043l-192.96 193.46zm49.375-182.38c-1.0078-2.0156-3.5273-8.0625 5.0391-20.152 4.5352-6.5508 11.586-14.105 18.137-14.105h1.5117c14.609 2.5195 29.727 34.762 39.297 63.48-25.695-4.5352-57.434-14.609-63.984-29.223zm42.824 61.465-92.199 92.703v-92.703zm-92.199 221.68 221.68-221.68h58.945v13.602c-0.50391 0-0.50391 0.50391-1.0078 0.50391l-266.51 266.52h-13.098zm243.34 58.949 37.281-37.281v37.281z"></path>

      </g>
     <g id="IconSvg_iconCarrier">
      <path xmlns="http://www.w3.org/2000/svg" d="m552.65 284.12h-69.02c-2.5195-1.0078-5.0391-1.0078-7.0547 0h-14.609c20.152-6.5508 40.305-17.129 47.863-33.25 4.0312-8.5664 5.543-22.672-7.0547-40.305-12.594-17.129-25.695-24.688-39.801-21.664-35.266 6.5508-55.418 78.594-58.945 92.699 0 1.0078-0.50391 1.5117-0.50391 2.5195h-3.5273c0-1.0078 0-1.5117-0.50391-2.5195-3.5273-14.105-23.68-86.152-58.945-92.699-14.105-2.5195-27.711 4.5352-39.801 21.664-12.594 17.633-10.578 31.738-7.0547 40.305 7.0547 16.121 27.711 26.703 47.863 33.25h-89.68c-5.543 0-10.078 4.5352-10.078 10.078v300.77c0 5.543 4.5352 10.078 10.078 10.078h300.77c5.543 0 10.078-4.5352 10.078-10.078v-300.77c0-5.543-4.5352-10.078-10.078-10.078zm-86.152-75.57h1.5117c6.5508 0 13.602 7.5586 18.137 14.105 8.5664 12.09 6.0469 18.137 5.0391 20.152-6.5508 14.609-38.289 24.688-63.984 29.223 9.0703-28.215 24.688-60.457 39.297-63.48zm76.078 310.85-63.984 63.48c-0.50391 0.50391-1.0078 1.5117-1.5117 2.0156h-72.551l138.04-138.04zm-238.81 65.496 238.8-238.8v72.043l-166.76 166.76zm-41.816-159.71 120.91-120.91h72.043l-192.96 193.46zm49.375-182.38c-1.0078-2.0156-3.5273-8.0625 5.0391-20.152 4.5352-6.5508 11.586-14.105 18.137-14.105h1.5117c14.609 2.5195 29.727 34.762 39.297 63.48-25.695-4.5352-57.434-14.609-63.984-29.223zm42.824 61.465-92.199 92.703v-92.703zm-92.199 221.68 221.68-221.68h58.945v13.602c-0.50391 0-0.50391 0.50391-1.0078 0.50391l-266.51 266.52h-13.098zm243.34 58.949 37.281-37.281v37.281z"></path>

      </g>
      </svg>