<svg width="22" height="20" viewBox="0 0 22 20" fill="none" xmlns="http://www.w3.org/2000/svg">
<mask id="path-1-inside-1_5_24" fill="white">
<path d="M22 0.855272L18.52 19.0227C18.52 19.0227 18.0331 20.2823 16.6956 19.6782L8.66635 13.303L8.62912 13.2843C9.71368 12.2758 18.1238 4.44525 18.4914 4.09031L5.62365 11.7982L0.83095 10.1283C0.83095 10.1283 0.076719 9.8505 0.00416013 9.2464C-0.0693535 8.64131 0.855772 8.31405 0.855772 8.31405L20.3942 0.37674C20.3942 0.37674 22 -0.353912 22 0.855272Z"/>
</mask>
<path d="M22 0.855272L22.9821 1.0434L23 0.950185V0.855272H22ZM18.52 19.0227L19.4528 19.3833L19.4852 19.2993L19.5022 19.2108L18.52 19.0227ZM16.6956 19.6782L16.0737 20.4614L16.1709 20.5385L16.284 20.5896L16.6956 19.6782ZM8.66635 13.303L9.28817 12.5199L9.20809 12.4563L9.1168 12.4102L8.66635 13.303ZM8.62912 13.2843L7.94817 12.5519L6.89626 13.53L8.17867 14.1771L8.62912 13.2843ZM18.4914 4.09031L19.186 4.80966C19.5516 4.45662 19.5943 3.88551 19.2852 3.48209C18.9761 3.07868 18.4135 2.97128 17.9775 3.23244L18.4914 4.09031ZM5.62365 11.7982L5.29462 12.7426L5.73629 12.8965L6.13753 12.6561L5.62365 11.7982ZM0.83095 10.1283L0.4853 11.0667L0.493584 11.0697L0.50192 11.0726L0.83095 10.1283ZM0.00416013 9.2464L0.997025 9.12714L0.996861 9.12579L0.00416013 9.2464ZM0.855772 8.31405L1.18927 9.2568L1.21089 9.24915L1.23214 9.24052L0.855772 8.31405ZM20.3942 0.37674L20.7705 1.30321L20.7896 1.29547L20.8083 1.28695L20.3942 0.37674ZM21.0179 0.667143L17.5379 18.8346L19.5022 19.2108L22.9821 1.0434L21.0179 0.667143ZM18.52 19.0227C17.5873 18.6621 17.5875 18.6617 17.5877 18.6612C17.5877 18.661 17.5879 18.6605 17.588 18.6602C17.5883 18.6596 17.5885 18.659 17.5888 18.6584C17.5892 18.6572 17.5897 18.6561 17.5901 18.655C17.5909 18.6529 17.5917 18.6511 17.5923 18.6495C17.5936 18.6462 17.5946 18.644 17.5952 18.6426C17.5963 18.6399 17.5962 18.6405 17.5946 18.6438C17.5912 18.6508 17.5831 18.6669 17.5703 18.6878C17.5421 18.7339 17.5068 18.7776 17.4714 18.807C17.4417 18.8316 17.4228 18.838 17.4046 18.8405C17.3879 18.8429 17.2979 18.853 17.1072 18.7668L16.284 20.5896C16.762 20.8055 17.2345 20.8846 17.6853 20.8207C18.1345 20.757 18.4882 20.5618 18.7474 20.347C19.0009 20.137 19.171 19.9036 19.2758 19.7324C19.3296 19.6446 19.3699 19.567 19.3984 19.5075C19.4128 19.4776 19.4244 19.4517 19.4333 19.4308C19.4378 19.4203 19.4416 19.4111 19.4449 19.4031C19.4465 19.3992 19.448 19.3955 19.4493 19.3922C19.4499 19.3905 19.4506 19.389 19.4511 19.3875C19.4514 19.3867 19.4517 19.386 19.452 19.3853C19.4521 19.3849 19.4523 19.3844 19.4524 19.3843C19.4526 19.3838 19.4528 19.3833 18.52 19.0227ZM17.3174 18.8951L9.28817 12.5199L8.04453 14.0862L16.0737 20.4614L17.3174 18.8951ZM9.1168 12.4102L9.07956 12.3915L8.17867 14.1771L8.21591 14.1959L9.1168 12.4102ZM9.31007 14.0166C10.3873 13.0149 18.8095 5.17329 19.186 4.80966L17.7967 3.37096C17.4382 3.71721 9.04005 11.5367 7.94817 12.5519L9.31007 14.0166ZM17.9775 3.23244L5.10978 10.9404L6.13753 12.6561L19.0053 4.94818L17.9775 3.23244ZM5.95268 10.8539L1.15998 9.184L0.50192 11.0726L5.29462 12.7426L5.95268 10.8539ZM0.83095 10.1283C1.1766 9.18996 1.17691 9.19007 1.17721 9.19018C1.17731 9.19022 1.17761 9.19033 1.1778 9.1904C1.1782 9.19055 1.17858 9.19069 1.17895 9.19082C1.17969 9.1911 1.18039 9.19136 1.18105 9.19161C1.18238 9.19211 1.18354 9.19255 1.18456 9.19293C1.18658 9.1937 1.18801 9.19426 1.18886 9.1946C1.19057 9.19527 1.19008 9.1951 1.18771 9.1941C1.18283 9.19203 1.17112 9.18693 1.15482 9.17888C1.12015 9.16175 1.07651 9.13711 1.03624 9.10757C0.929512 9.02928 0.984849 9.02578 0.997024 9.12714L-0.988704 9.36565C-0.90397 10.0711 -0.435238 10.5086 -0.146709 10.7202C0.0106514 10.8357 0.1601 10.9182 0.269117 10.9721C0.324656 10.9995 0.372436 11.0208 0.409086 11.0363C0.42748 11.0441 0.443271 11.0505 0.456058 11.0555C0.462458 11.058 0.468125 11.0602 0.47301 11.0621C0.475453 11.063 0.477702 11.0639 0.479752 11.0646C0.480777 11.065 0.481752 11.0654 0.482677 11.0657C0.48314 11.0659 0.48359 11.0661 0.484027 11.0662C0.484245 11.0663 0.484564 11.0664 0.484673 11.0665C0.484988 11.0666 0.4853 11.0667 0.83095 10.1283ZM0.996861 9.12579C1.01287 9.25753 0.966052 9.35805 0.940874 9.39621C0.924803 9.42056 0.927434 9.4069 0.980748 9.36911C1.02872 9.3351 1.08614 9.30386 1.13697 9.28002C1.16074 9.26888 1.17936 9.26107 1.18976 9.25689C1.19486 9.25483 1.19768 9.25377 1.19779 9.25373C1.19784 9.25371 1.1972 9.25395 1.1958 9.25446C1.1951 9.25471 1.19421 9.25504 1.19313 9.25543C1.19258 9.25562 1.19199 9.25583 1.19135 9.25606C1.19103 9.25618 1.19069 9.2563 1.19035 9.25642C1.19017 9.25648 1.1899 9.25658 1.18982 9.25661C1.18954 9.2567 1.18927 9.2568 0.855772 8.31405C0.522275 7.3713 0.521992 7.3714 0.521705 7.3715C0.521605 7.37154 0.521314 7.37164 0.521113 7.37171C0.52071 7.37185 0.520292 7.372 0.519859 7.37216C0.518992 7.37247 0.518065 7.3728 0.517077 7.37315C0.515103 7.37386 0.512888 7.37466 0.510441 7.37556C0.505548 7.37734 0.499715 7.3795 0.493007 7.38202C0.479608 7.38707 0.462621 7.39363 0.442573 7.4017C0.402661 7.41778 0.349585 7.44027 0.287773 7.46926C0.167435 7.52569 -0.0018331 7.61409 -0.175951 7.73753C-0.458084 7.93755 -1.09629 8.48011 -0.98854 9.367L0.996861 9.12579ZM1.23214 9.24052L20.7705 1.30321L20.0178 -0.549729L0.479401 7.38758L1.23214 9.24052ZM20.3942 0.37674C20.8083 1.28695 20.808 1.28708 20.8078 1.2872C20.8077 1.28723 20.8074 1.28735 20.8073 1.28743C20.8069 1.28757 20.8066 1.28771 20.8064 1.28784C20.8058 1.28809 20.8053 1.2883 20.8049 1.28847C20.8042 1.28881 20.8038 1.289 20.8037 1.28903C20.8035 1.2891 20.8047 1.28858 20.8071 1.28753C20.812 1.28544 20.8217 1.28133 20.8355 1.2758C20.8635 1.26458 20.9062 1.24833 20.958 1.23124C21.0706 1.19413 21.1864 1.16647 21.2753 1.1595C21.3878 1.15067 21.3156 1.18417 21.1899 1.09942C21.1139 1.04813 21.0551 0.976562 21.022 0.90441C20.9927 0.840417 21 0.812339 21 0.855272H23C23 0.314021 22.8038 -0.224424 22.3083 -0.558668C21.8815 -0.846502 21.4078 -0.857057 21.1188 -0.834371C20.8063 -0.809835 20.5206 -0.730404 20.3321 -0.668301C20.2334 -0.635784 20.1507 -0.6044 20.0908 -0.580382C20.0607 -0.568302 20.0359 -0.55789 20.0172 -0.549874C20.0079 -0.54586 20.0001 -0.542429 19.9938 -0.53967C19.9907 -0.53829 19.988 -0.537077 19.9857 -0.53604C19.9845 -0.535522 19.9835 -0.535048 19.9825 -0.53462C19.9821 -0.534405 19.9816 -0.534203 19.9812 -0.534011C19.981 -0.533916 19.9807 -0.53378 19.9806 -0.533733C19.9803 -0.533601 19.98 -0.533472 20.3942 0.37674Z" fill="black" mask="url(#path-1-inside-1_5_24)"/>
</svg>
